<svg xmlns="http://www.w3.org/2000/svg" width="189" height="48" viewBox="0 0 189 48" fill="none"><path d="M4.20378 35.3599C5.9966 34.9801 7.58256 34.8074 9.16852 35.3254C11.6164 36.1197 13.4437 37.57 13.8574 40.2635C14.2022 42.5427 13.4437 44.4765 11.4095 45.7197C9.16852 47.101 6.72063 46.8938 4.34169 45.1326C-0.623056 41.4376 -1.00231 33.2535 3.72109 28.4535C7.58256 24.5858 12.4439 23.4117 17.7879 23.8261C19.891 23.9643 22.0286 24.6204 24.1662 23.7571C20.7184 23.688 17.581 22.065 14.1333 21.9269C9.47882 21.7197 5.34153 23.101 1.51454 25.829C2.92811 22.2722 4.72094 18.9916 7.20331 16.1599C7.92734 15.3312 7.99629 14.7787 7.51361 13.8117C6.82406 12.3959 6.3069 9.52973 5.75526 6.00743C5.41049 3.76283 5.03123 1.31103 5.72078 1.0693C6.16899 0.896638 7.23779 2.00167 9.37538 4.24628C9.82359 4.72973 10.1684 5.10959 10.4097 5.35131C11.2027 6.24916 11.8233 7.00887 12.3404 7.66498C14.1333 9.94412 15.0297 11.0492 15.4089 12.0506C15.4779 12.2233 15.6847 12.6376 15.995 13.1211C16.2019 13.4319 16.5812 13.7772 17.6155 14.3297C19.5807 15.3657 21.1666 16.7815 21.9251 19.0261C22.3389 20.3038 23.4766 20.9599 24.5799 21.5815C25.2005 21.9269 26.0969 22.065 25.9935 23.0664C25.89 23.9988 25.2695 24.6204 24.442 25.0002C22.9595 25.6909 21.408 25.5528 19.891 25.3456C18.4429 25.1384 16.9949 25.0348 15.5124 25.2074C17.2017 26.2089 19.0291 26.8995 20.3737 28.4189C17.2017 27.0376 13.9609 26.2779 10.6166 27.6247C7.16883 28.9715 5.16914 31.5614 4.20378 35.3599Z" fill="url(#paint0_linear_447_2497)"></path><path d="M10.5473 27.6248C12.0643 27.0377 13.5123 26.8651 14.9604 26.9687C14.064 26.6924 13.1331 26.5197 12.1332 26.5197C6.96163 26.4852 2.75539 30.6636 2.72092 35.8435C2.68644 41.0233 6.8582 45.2363 12.0298 45.2708C12.0643 45.2708 12.0643 45.2708 12.0988 45.2708C13.6158 44.0277 14.1674 42.301 13.8571 40.2982C13.4434 37.6046 11.6161 36.1543 9.16819 35.36C7.58223 34.842 6.03074 35.0147 4.20344 35.3946C5.16881 31.5615 7.1685 28.9715 10.5473 27.6248Z" fill="url(#paint1_linear_447_2497)"></path><path d="M13.1677 35.0488C15.2708 35.1524 16.512 36.361 17.9601 37.4661C17.7532 35.6013 17.0637 34.1164 15.7191 32.7351C17.7877 32.7006 19.1668 33.6675 20.5459 34.7035C20.7183 32.597 19.8908 31.1467 17.0292 28.4531C20.7528 28.6258 23.7868 32.8042 23.5799 37.5006C23.3041 43.302 17.9946 48.2402 12.0645 47.9294C14.2365 46.3409 15.8225 44.5452 16.0294 41.8862C16.1673 39.1927 15.1674 37.0517 13.1677 35.0488Z" fill="url(#paint2_linear_447_2497)"></path><path d="M15.9944 11.2217C13.9602 7.76846 12.5811 6.04184 11.7192 5.144C11.0296 4.45335 10.5124 3.6591 9.8229 2.96846C9.5126 2.65766 8.92649 2.07061 8.58171 1.17277C8.4438 0.861981 8.23694 0.309463 8.47828 0.0677361C8.65067 -0.104926 9.13335 0.0677361 10.1332 0.41306C10.5124 0.551189 10.8572 0.654786 11.202 0.827448C11.4433 0.965578 11.6157 1.06918 11.7536 1.13824C11.7881 1.17277 11.9605 1.27637 12.1329 1.44903C12.1329 1.44903 12.4432 1.72529 12.719 2.03608C13.443 2.93392 14.7532 6.38716 15.9944 11.2217Z" fill="url(#paint3_linear_447_2497)"></path><path d="M16.9953 28.4189C18.202 29.5585 19.0295 30.4564 19.6156 31.3197C21.0292 33.0118 21.8566 35.2218 21.8221 37.57C21.7877 42.6808 17.8572 46.8247 12.858 47.2391C12.5822 47.4808 12.3064 47.688 11.9961 47.8952C17.9607 48.206 23.2702 43.2679 23.5115 37.4664C23.7529 32.77 20.7533 28.5916 16.9953 28.4189Z" fill="url(#paint4_linear_447_2497)"></path><path d="M21.8215 37.5697C21.8215 35.187 20.9941 33.0114 19.615 31.3193C20.3735 32.4589 20.6148 33.4603 20.5114 34.7035C19.1323 33.7021 17.7532 32.7006 15.6846 32.7352C17.0292 34.151 17.7187 35.6013 17.9256 37.4661C16.4775 36.3611 15.2364 35.1524 13.1332 35.0488C15.1329 37.0517 16.1673 39.1927 15.9604 41.8517C15.788 44.1654 14.6158 45.8229 12.8574 47.2388C17.8566 46.8244 21.7871 42.6805 21.8215 37.5697Z" fill="url(#paint5_linear_447_2497)"></path><path d="M10.5476 27.6249C13.8919 26.2781 17.1327 27.0723 20.3047 28.4191C18.96 26.8651 17.1327 26.1745 15.4433 25.2076C16.9259 25.0349 18.3739 25.1385 19.822 25.3457C21.0632 25.5184 22.3043 25.622 23.5111 25.3112C23.4421 24.8623 23.3731 24.4133 23.2697 23.999C21.4079 24.4479 19.5806 23.9299 17.7533 23.7918C12.6162 23.4464 7.92728 24.5169 4.13477 28.1083C4.34163 29.4896 4.85879 30.7673 5.58281 31.8723C6.72057 29.904 8.341 28.5227 10.5476 27.6249Z" fill="url(#paint6_linear_447_2497)"></path><path d="M13.8567 40.2633C13.4429 37.5698 11.6156 36.1194 9.16774 35.3252C7.58179 34.8072 6.0303 34.9799 4.203 35.3597C5.16837 31.5612 7.13358 28.9712 10.5468 27.6245C13.8911 26.2777 17.132 27.0719 20.3039 28.4187C18.9593 26.8647 17.132 26.1741 15.4426 25.2072C16.9252 25.0345 18.3732 25.1381 19.8213 25.3453C21.3727 25.5525 22.9242 25.6906 24.3723 25C24.8894 24.7583 25.3376 24.4129 25.6135 23.964C23.269 20.0964 19.0283 17.5065 14.167 17.4719C8.58163 17.4374 3.7548 20.8216 1.68615 25.6561C5.44419 23.0317 9.547 21.7194 14.098 21.8921C17.5113 22.0302 20.6832 23.6532 24.1309 23.7223C21.9933 24.6201 19.8557 23.964 17.7526 23.7914C12.4086 23.4115 7.58179 24.5511 3.72032 28.4532C2.30675 29.9036 1.34138 31.6302 0.824219 33.495C1.92749 39.3655 6.82328 43.8892 12.8568 44.4417C13.7877 43.3367 14.098 41.8863 13.8567 40.2633Z" fill="url(#paint7_linear_447_2497)"></path><path d="M5.75523 5.97277C6.1 8.18284 6.44477 10.1167 6.82402 11.6361C8.09969 12.672 9.72012 13.2936 11.4785 13.3282C12.9265 13.3282 14.3056 12.9138 15.4434 12.2231C15.4089 12.1195 15.3744 12.085 15.3744 12.0505C14.9952 11.049 14.0988 9.90946 12.3059 7.66485C11.7888 7.00874 11.1682 6.24903 10.3752 5.35119C10.1683 5.10946 9.82356 4.7296 9.34087 4.24615C7.27223 2.07061 6.20343 0.965574 5.72075 1.06917C5.61732 1.2073 5.47941 1.34543 5.37598 1.51809C5.16911 2.31234 5.47941 4.21162 5.75523 5.97277Z" fill="url(#paint8_linear_447_2497)"></path><path d="M8.58171 1.17277C8.92649 2.10515 9.5126 2.65766 9.8229 2.96845C10.5124 3.6591 11.0641 4.45335 11.7192 5.14399C12.1674 5.62745 12.7535 6.28356 13.512 7.31953C13.6154 6.87061 13.6844 6.38716 13.6844 5.90371C13.7188 2.86486 11.4433 0.378527 8.51276 0.0332031L8.47828 0.0677355C8.23694 0.309462 8.4438 0.86198 8.58171 1.17277Z" fill="url(#paint9_linear_447_2497)"></path><path d="M39.922 13.6396H51.2995C51.9201 13.6396 52.2649 13.9504 52.2649 14.5375V17.0238C52.2649 17.231 52.1959 17.4727 52.058 17.7145L44.7143 30.9404H51.8856C52.5062 30.9404 52.851 31.2512 52.851 31.8382V34.3245C52.851 34.9461 52.5407 35.2569 51.8856 35.2569H39.4048C38.7842 35.2569 38.4395 34.9461 38.4395 34.3245V31.8382C38.4395 31.5965 38.5084 31.3893 38.6118 31.2166L45.9555 17.9217H39.922C39.3014 17.9217 38.9566 17.6109 38.9566 16.9893V14.503C38.9566 13.9504 39.2669 13.6396 39.922 13.6396Z" fill="url(#paint10_linear_447_2497)"></path><path d="M67.2624 35.2218H56.1262C55.5056 35.2218 55.1953 34.911 55.1953 34.2549V14.5714C55.1953 13.9498 55.5056 13.6045 56.1262 13.6045H66.9521C67.5727 13.6045 67.9175 13.9153 67.9175 14.5023V16.9887C67.9175 17.6102 67.6072 17.921 66.9521 17.921H60.4359V22.0304H66.4694C67.09 22.0304 67.4348 22.3412 67.4348 22.9282V25.2419C67.4348 25.8635 67.1245 26.1743 66.4694 26.1743H60.4359V30.9397H67.2624C67.883 30.9397 68.2278 31.2505 68.2278 31.8376V34.3239C68.1933 34.911 67.883 35.2218 67.2624 35.2218Z" fill="url(#paint11_linear_447_2497)"></path><path d="M87.0185 21.8232C87.0185 23.9642 85.9152 25.5182 83.7431 26.4505L86.8461 34.2549C86.9495 34.5311 86.915 34.7728 86.7427 34.9455C86.5703 35.1182 86.2945 35.2218 85.9497 35.2218H82.5364C82.433 35.2218 82.3296 35.2218 82.2606 35.1872C82.1916 35.1527 82.1227 35.1182 82.0537 35.0836C81.9848 35.0491 81.9503 34.98 81.8813 34.911C81.8124 34.8419 81.7779 34.7728 81.7779 34.7383C81.7434 34.7038 81.709 34.6002 81.64 34.462L81.5711 34.2549L78.8129 27.2448H76.4339V34.2549C76.4339 34.8764 76.1236 35.2218 75.5375 35.2218H72.1243C71.5037 35.2218 71.1934 34.911 71.1934 34.2549V14.5714C71.1934 13.9498 71.5037 13.6045 72.1243 13.6045H78.9508C81.709 13.6045 83.7431 14.1225 85.0533 15.1584C86.3634 16.1944 87.0185 17.4721 87.0185 19.0261V21.8232ZM78.9852 17.921H76.4684V22.9628H78.9852C79.8127 22.9628 80.5367 22.7901 81.0539 22.4448C81.6055 22.0995 81.8469 21.5815 81.8469 20.8908V19.9584C81.8469 19.2678 81.5711 18.7498 81.0539 18.4045C80.5023 18.0937 79.8127 17.921 78.9852 17.921Z" fill="url(#paint12_linear_447_2497)"></path><path d="M98.431 35.1876H91.1563C90.6391 35.1876 90.3633 34.8768 90.3633 34.2207V14.5372C90.3633 13.9156 90.6736 13.5703 91.2942 13.5703H98.4655C101.224 13.5703 103.258 14.0883 104.602 15.1243C105.913 16.1602 106.568 17.4725 106.568 18.9919V29.7315C106.568 31.2509 105.913 32.5286 104.602 33.5991C103.223 34.6696 101.189 35.1876 98.431 35.1876ZM98.431 17.9214H95.5694V30.9401H98.431C99.2584 30.9401 99.9825 30.7674 100.5 30.4221C101.051 30.0768 101.293 29.5588 101.293 28.8682V19.9933C101.293 19.3027 101.017 18.7847 100.5 18.4394C99.948 18.0941 99.2584 17.9214 98.431 17.9214Z" fill="url(#paint13_linear_447_2497)"></path><path d="M118.635 13.6396C119.221 13.6396 119.6 13.9504 119.807 14.6066L125.565 34.29C125.771 34.9116 125.53 35.2569 124.875 35.2569H121.358C120.772 35.2569 120.428 34.9461 120.255 34.29L119.428 31.2512H114.153L113.325 34.29C113.153 34.9116 112.774 35.2569 112.222 35.2569H109.015C108.36 35.2569 108.119 34.9461 108.326 34.29L114.049 14.6066C114.256 13.985 114.635 13.6396 115.221 13.6396H118.635ZM118.255 27.0727L117.807 25.3461C117.531 24.2756 117.221 22.0655 116.807 18.7159C116.29 22.4799 115.911 24.69 115.739 25.3461L115.256 27.0727H118.255Z" fill="url(#paint14_linear_447_2497)"></path><path d="M123.565 13.6738H136.77C137.08 13.6738 137.252 13.8465 137.252 14.1573V15.1587C137.252 15.4695 137.08 15.6422 136.77 15.6422H131.322V34.8422C131.322 35.153 131.184 35.3256 130.874 35.3256H129.495C129.185 35.3256 129.012 35.153 129.012 34.8422V15.6076H123.565C123.254 15.6076 123.082 15.435 123.082 15.1242V14.1227C123.082 13.812 123.254 13.6738 123.565 13.6738Z" fill="url(#paint15_linear_447_2497)"></path><path d="M152.388 35.2905H141.148C140.872 35.2905 140.734 35.1178 140.734 34.807V14.1221C140.734 13.8113 140.872 13.6387 141.183 13.6387H152.008C152.319 13.6387 152.491 13.8113 152.491 14.1221V15.1236C152.491 15.4344 152.319 15.607 152.008 15.607H142.941V23.0315H151.422C151.733 23.0315 151.905 23.2041 151.905 23.5149V24.4473C151.905 24.7581 151.733 24.9308 151.422 24.9308H142.941V33.3912H152.353C152.664 33.3912 152.836 33.5293 152.836 33.8401V34.8416C152.836 35.1178 152.698 35.2905 152.388 35.2905Z" fill="url(#paint16_linear_447_2497)"></path><path d="M170.385 28.8676V30.905C170.385 34.0129 168.144 35.5324 163.696 35.5324C159.214 35.5324 157.008 33.9784 157.008 30.905V18.059C157.008 14.9511 159.249 13.4316 163.696 13.4316C168.144 13.4316 170.385 14.9856 170.385 18.059V19.682C170.385 20.0273 170.247 20.2 169.937 20.2H168.661C168.351 20.2 168.178 20.0273 168.178 19.682V18.4043C168.178 16.3669 166.696 15.3655 163.696 15.3655C160.697 15.3655 159.214 16.3669 159.214 18.4043V30.5597C159.214 32.5971 160.697 33.5985 163.696 33.5985C166.696 33.5985 168.178 32.5971 168.178 30.5597V28.8676C168.178 28.5568 168.351 28.3842 168.661 28.3842H169.937C170.213 28.3842 170.385 28.5223 170.385 28.8676Z" fill="url(#paint17_linear_447_2497)"></path><path d="M177.108 14.1221V22.8588H186.348V14.1221C186.348 13.8113 186.486 13.6387 186.796 13.6387H188.175C188.486 13.6387 188.624 13.8113 188.624 14.1221V34.7725C188.624 35.0833 188.486 35.2559 188.175 35.2559H186.796C186.486 35.2559 186.348 35.0833 186.348 34.7725V24.7581H177.108V34.7725C177.108 35.0833 176.97 35.2559 176.66 35.2559H175.315C175.005 35.2559 174.867 35.0833 174.867 34.7725V14.1221C174.867 13.8113 175.005 13.6387 175.315 13.6387H176.66C176.97 13.6732 177.108 13.8113 177.108 14.1221Z" fill="url(#paint18_linear_447_2497)"></path><defs><linearGradient id="paint0_linear_447_2497" x1="-3.28964" y1="31.7612" x2="42.8248" y2="-0.701947" gradientUnits="userSpaceOnUse"><stop stop-color="#60BBEA"></stop><stop offset="0.0589467" stop-color="#60B9E9"></stop><stop offset="0.1909" stop-color="#60B2E4"></stop><stop offset="0.3831" stop-color="#609FD8"></stop><stop offset="0.6123" stop-color="#5F7FC3"></stop><stop offset="0.8677" stop-color="#5E53A6"></stop><stop offset="1" stop-color="#5E3995"></stop></linearGradient><linearGradient id="paint1_linear_447_2497" x1="11.4232" y1="46.8358" x2="8.9436" y2="32.3071" gradientUnits="userSpaceOnUse"><stop stop-color="#60BBEA"></stop><stop offset="0.1423" stop-color="#60B5E6"></stop><stop offset="0.3344" stop-color="#60A4DB"></stop><stop offset="0.5548" stop-color="#5F87C8"></stop><stop offset="0.7944" stop-color="#5F60AF"></stop><stop offset="1" stop-color="#5E3995"></stop></linearGradient><linearGradient id="paint2_linear_447_2497" x1="14.7873" y1="45.9425" x2="20.6868" y2="31.2326" gradientUnits="userSpaceOnUse"><stop stop-color="#60BBEA"></stop><stop offset="0.1423" stop-color="#60B5E6"></stop><stop offset="0.3344" stop-color="#60A4DB"></stop><stop offset="0.5548" stop-color="#5F87C8"></stop><stop offset="0.7944" stop-color="#5F60AF"></stop><stop offset="1" stop-color="#5E3995"></stop></linearGradient><linearGradient id="paint3_linear_447_2497" x1="6.45601" y1="9.06905" x2="29.5696" y2="-4.56726" gradientUnits="userSpaceOnUse"><stop stop-color="#60BBEA"></stop><stop offset="0.1423" stop-color="#60B5E6"></stop><stop offset="0.3344" stop-color="#60A4DB"></stop><stop offset="0.5548" stop-color="#5F87C8"></stop><stop offset="0.7944" stop-color="#5F60AF"></stop><stop offset="1" stop-color="#5E3995"></stop></linearGradient><linearGradient id="paint4_linear_447_2497" x1="6.86914" y1="48.5394" x2="27.7746" y2="27.2968" gradientUnits="userSpaceOnUse"><stop stop-color="#60BBEA"></stop><stop offset="0.1423" stop-color="#60B5E6"></stop><stop offset="0.3344" stop-color="#60A4DB"></stop><stop offset="0.5548" stop-color="#5F87C8"></stop><stop offset="0.7944" stop-color="#5F60AF"></stop><stop offset="1" stop-color="#5E3995"></stop></linearGradient><linearGradient id="paint5_linear_447_2497" x1="6.59185" y1="48.5651" x2="22.547" y2="33.7468" gradientUnits="userSpaceOnUse"><stop stop-color="#60BBEA"></stop><stop offset="0.1423" stop-color="#60B5E6"></stop><stop offset="0.3344" stop-color="#60A4DB"></stop><stop offset="0.5548" stop-color="#5F87C8"></stop><stop offset="0.7944" stop-color="#5F60AF"></stop><stop offset="1" stop-color="#5E3995"></stop></linearGradient><linearGradient id="paint6_linear_447_2497" x1="-0.328054" y1="27.7273" x2="30.7889" y2="27.9391" gradientUnits="userSpaceOnUse"><stop stop-color="#60BBEA"></stop><stop offset="0.1423" stop-color="#60B5E6"></stop><stop offset="0.3344" stop-color="#60A4DB"></stop><stop offset="0.5548" stop-color="#5F87C8"></stop><stop offset="0.7944" stop-color="#5F60AF"></stop><stop offset="1" stop-color="#5E3995"></stop></linearGradient><linearGradient id="paint7_linear_447_2497" x1="-7.65443" y1="41.6298" x2="25.0976" y2="23.7129" gradientUnits="userSpaceOnUse"><stop stop-color="#60BBEA"></stop><stop offset="0.1423" stop-color="#60B5E6"></stop><stop offset="0.3344" stop-color="#60A4DB"></stop><stop offset="0.5548" stop-color="#5F87C8"></stop><stop offset="0.7944" stop-color="#5F60AF"></stop><stop offset="1" stop-color="#5E3995"></stop></linearGradient><linearGradient id="paint8_linear_447_2497" x1="2.39873" y1="-5.21026" x2="14.9103" y2="19.2023" gradientUnits="userSpaceOnUse"><stop stop-color="#60BBEA"></stop><stop offset="0.1423" stop-color="#60B5E6"></stop><stop offset="0.3344" stop-color="#60A4DB"></stop><stop offset="0.5548" stop-color="#5F87C8"></stop><stop offset="0.7944" stop-color="#5F60AF"></stop><stop offset="1" stop-color="#5E3995"></stop></linearGradient><linearGradient id="paint9_linear_447_2497" x1="6.05935" y1="-7.08665" x2="18.571" y2="17.3259" gradientUnits="userSpaceOnUse"><stop stop-color="#60BBEA"></stop><stop offset="0.1423" stop-color="#60B5E6"></stop><stop offset="0.3344" stop-color="#60A4DB"></stop><stop offset="0.5548" stop-color="#5F87C8"></stop><stop offset="0.7944" stop-color="#5F60AF"></stop><stop offset="1" stop-color="#5E3995"></stop></linearGradient><linearGradient id="paint10_linear_447_2497" x1="10.6017" y1="33.1602" x2="176.374" y2="-7.67756" gradientUnits="userSpaceOnUse"><stop stop-color="#60BBEA"></stop><stop offset="0.1423" stop-color="#60B5E6"></stop><stop offset="0.3344" stop-color="#60A4DB"></stop><stop offset="0.5548" stop-color="#5F87C8"></stop><stop offset="0.7944" stop-color="#5F60AF"></stop><stop offset="1" stop-color="#5E3995"></stop></linearGradient><linearGradient id="paint11_linear_447_2497" x1="11.5067" y1="36.8337" x2="177.279" y2="-4.00402" gradientUnits="userSpaceOnUse"><stop stop-color="#60BBEA"></stop><stop offset="0.1423" stop-color="#60B5E6"></stop><stop offset="0.3344" stop-color="#60A4DB"></stop><stop offset="0.5548" stop-color="#5F87C8"></stop><stop offset="0.7944" stop-color="#5F60AF"></stop><stop offset="1" stop-color="#5E3995"></stop></linearGradient><linearGradient id="paint12_linear_447_2497" x1="12.5021" y1="40.8721" x2="178.274" y2="0.0343466" gradientUnits="userSpaceOnUse"><stop stop-color="#60BBEA"></stop><stop offset="0.1423" stop-color="#60B5E6"></stop><stop offset="0.3344" stop-color="#60A4DB"></stop><stop offset="0.5548" stop-color="#5F87C8"></stop><stop offset="0.7944" stop-color="#5F60AF"></stop><stop offset="1" stop-color="#5E3995"></stop></linearGradient><linearGradient id="paint13_linear_447_2497" x1="13.4597" y1="44.7578" x2="179.232" y2="3.92008" gradientUnits="userSpaceOnUse"><stop stop-color="#60BBEA"></stop><stop offset="0.1423" stop-color="#60B5E6"></stop><stop offset="0.3344" stop-color="#60A4DB"></stop><stop offset="0.5548" stop-color="#5F87C8"></stop><stop offset="0.7944" stop-color="#5F60AF"></stop><stop offset="1" stop-color="#5E3995"></stop></linearGradient><linearGradient id="paint14_linear_447_2497" x1="14.8498" y1="50.4011" x2="180.622" y2="9.56338" gradientUnits="userSpaceOnUse"><stop stop-color="#60BBEA"></stop><stop offset="0.1423" stop-color="#60B5E6"></stop><stop offset="0.3344" stop-color="#60A4DB"></stop><stop offset="0.5548" stop-color="#5F87C8"></stop><stop offset="0.7944" stop-color="#5F60AF"></stop><stop offset="1" stop-color="#5E3995"></stop></linearGradient><linearGradient id="paint15_linear_447_2497" x1="92.7023" y1="32.9761" x2="314.234" y2="-21.4968" gradientUnits="userSpaceOnUse"><stop stop-color="#60BBEA"></stop><stop offset="0.1423" stop-color="#60B5E6"></stop><stop offset="0.3344" stop-color="#60A4DB"></stop><stop offset="0.5548" stop-color="#5F87C8"></stop><stop offset="0.7944" stop-color="#5F60AF"></stop><stop offset="1" stop-color="#5E3995"></stop></linearGradient><linearGradient id="paint16_linear_447_2497" x1="93.822" y1="37.5291" x2="315.353" y2="-16.9437" gradientUnits="userSpaceOnUse"><stop stop-color="#60BBEA"></stop><stop offset="0.1423" stop-color="#60B5E6"></stop><stop offset="0.3344" stop-color="#60A4DB"></stop><stop offset="0.5548" stop-color="#5F87C8"></stop><stop offset="0.7944" stop-color="#5F60AF"></stop><stop offset="1" stop-color="#5E3995"></stop></linearGradient><linearGradient id="paint17_linear_447_2497" x1="94.7884" y1="41.4591" x2="316.32" y2="-13.0138" gradientUnits="userSpaceOnUse"><stop stop-color="#60BBEA"></stop><stop offset="0.1423" stop-color="#60B5E6"></stop><stop offset="0.3344" stop-color="#60A4DB"></stop><stop offset="0.5548" stop-color="#5F87C8"></stop><stop offset="0.7944" stop-color="#5F60AF"></stop><stop offset="1" stop-color="#5E3995"></stop></linearGradient><linearGradient id="paint18_linear_447_2497" x1="95.8213" y1="45.6592" x2="317.353" y2="-8.81368" gradientUnits="userSpaceOnUse"><stop stop-color="#60BBEA"></stop><stop offset="0.1423" stop-color="#60B5E6"></stop><stop offset="0.3344" stop-color="#60A4DB"></stop><stop offset="0.5548" stop-color="#5F87C8"></stop><stop offset="0.7944" stop-color="#5F60AF"></stop><stop offset="1" stop-color="#5E3995"></stop></linearGradient></defs></svg>